<mxfile host="Electron" modified="2024-06-20T14:46:46.658Z" agent="Mozilla/5.0 (Windows NT 10.0; Win64; x64) AppleWebKit/537.36 (KHTML, like Gecko) draw.io/24.5.3 Chrome/124.0.6367.207 Electron/30.0.6 Safari/537.36" etag="m7LGd12tJuvYevpQ7-bL" version="24.5.3" type="device">
  <diagram name="第 1 页" id="Ylpn5Sza7uNyB_0fL26g">
    <mxGraphModel dx="618" dy="469" grid="1" gridSize="10" guides="1" tooltips="1" connect="1" arrows="1" fold="1" page="1" pageScale="1" pageWidth="827" pageHeight="1169" math="0" shadow="0">
      <root>
        <mxCell id="0" />
        <mxCell id="1" parent="0" />
        <mxCell id="9A-kqaF41Z_SbBzRxTRp-1" value="" style="ellipse;shape=cloud;whiteSpace=wrap;html=1;" vertex="1" parent="1">
          <mxGeometry x="170" y="330" width="120" height="80" as="geometry" />
        </mxCell>
        <mxCell id="9A-kqaF41Z_SbBzRxTRp-2" value="&lt;font color=&quot;#ffffff&quot;&gt;depot&lt;/font&gt;" style="ellipse;whiteSpace=wrap;html=1;aspect=fixed;fillColor=#5D1006;" vertex="1" parent="1">
          <mxGeometry x="340" y="415" width="45" height="45" as="geometry" />
        </mxCell>
        <mxCell id="9A-kqaF41Z_SbBzRxTRp-6" value="" style="endArrow=classic;html=1;rounded=0;entryX=0.472;entryY=0.896;entryDx=0;entryDy=0;entryPerimeter=0;exitX=0.025;exitY=0.407;exitDx=0;exitDy=0;exitPerimeter=0;" edge="1" parent="1" source="9A-kqaF41Z_SbBzRxTRp-2" target="9A-kqaF41Z_SbBzRxTRp-1">
          <mxGeometry width="50" height="50" relative="1" as="geometry">
            <mxPoint x="140.0000000000001" y="549.9999999999999" as="sourcePoint" />
            <mxPoint x="291.36" y="401.68" as="targetPoint" />
          </mxGeometry>
        </mxCell>
        <mxCell id="9A-kqaF41Z_SbBzRxTRp-7" value="" style="ellipse;whiteSpace=wrap;html=1;aspect=fixed;fillColor=#BC0112;" vertex="1" parent="1">
          <mxGeometry x="330" y="347.5" width="22.5" height="22.5" as="geometry" />
        </mxCell>
        <mxCell id="9A-kqaF41Z_SbBzRxTRp-8" value="" style="ellipse;shape=cloud;whiteSpace=wrap;html=1;" vertex="1" parent="1">
          <mxGeometry x="480" y="361.25" width="120" height="80" as="geometry" />
        </mxCell>
        <mxCell id="9A-kqaF41Z_SbBzRxTRp-9" value="" style="endArrow=classic;html=1;rounded=0;entryX=0.31;entryY=0.8;entryDx=0;entryDy=0;entryPerimeter=0;exitX=1;exitY=0.5;exitDx=0;exitDy=0;" edge="1" parent="1" source="9A-kqaF41Z_SbBzRxTRp-2" target="9A-kqaF41Z_SbBzRxTRp-8">
          <mxGeometry width="50" height="50" relative="1" as="geometry">
            <mxPoint x="256" y="516" as="sourcePoint" />
            <mxPoint x="237" y="412" as="targetPoint" />
          </mxGeometry>
        </mxCell>
        <mxCell id="9A-kqaF41Z_SbBzRxTRp-10" value="" style="ellipse;whiteSpace=wrap;html=1;aspect=fixed;fillColor=#FFD966;" vertex="1" parent="1">
          <mxGeometry x="414" y="357.5" width="22.5" height="22.5" as="geometry" />
        </mxCell>
        <mxCell id="9A-kqaF41Z_SbBzRxTRp-11" value="" style="ellipse;whiteSpace=wrap;html=1;aspect=fixed;fillColor=#BC0112;" vertex="1" parent="1">
          <mxGeometry x="200" y="365" width="22.5" height="22.5" as="geometry" />
        </mxCell>
        <mxCell id="9A-kqaF41Z_SbBzRxTRp-12" value="" style="ellipse;whiteSpace=wrap;html=1;aspect=fixed;fillColor=#BC0112;" vertex="1" parent="1">
          <mxGeometry x="240" y="357.5" width="22.5" height="22.5" as="geometry" />
        </mxCell>
        <mxCell id="9A-kqaF41Z_SbBzRxTRp-13" value="" style="ellipse;whiteSpace=wrap;html=1;aspect=fixed;fillColor=#FFD966;" vertex="1" parent="1">
          <mxGeometry x="550" y="392.5" width="22.5" height="22.5" as="geometry" />
        </mxCell>
        <mxCell id="9A-kqaF41Z_SbBzRxTRp-14" value="" style="ellipse;whiteSpace=wrap;html=1;aspect=fixed;fillColor=#FFD966;" vertex="1" parent="1">
          <mxGeometry x="510" y="387.5" width="22.5" height="22.5" as="geometry" />
        </mxCell>
        <mxCell id="9A-kqaF41Z_SbBzRxTRp-15" value="" style="endArrow=classic;html=1;rounded=0;entryX=0;entryY=0.5;entryDx=0;entryDy=0;exitX=0.932;exitY=0.377;exitDx=0;exitDy=0;exitPerimeter=0;" edge="1" parent="1" source="9A-kqaF41Z_SbBzRxTRp-1" target="9A-kqaF41Z_SbBzRxTRp-7">
          <mxGeometry width="50" height="50" relative="1" as="geometry">
            <mxPoint x="233" y="470" as="sourcePoint" />
            <mxPoint x="237" y="412" as="targetPoint" />
          </mxGeometry>
        </mxCell>
        <mxCell id="9A-kqaF41Z_SbBzRxTRp-16" value="" style="endArrow=classic;html=1;rounded=0;exitX=0.07;exitY=0.4;exitDx=0;exitDy=0;exitPerimeter=0;entryX=1;entryY=0.5;entryDx=0;entryDy=0;" edge="1" parent="1" source="9A-kqaF41Z_SbBzRxTRp-8" target="9A-kqaF41Z_SbBzRxTRp-10">
          <mxGeometry width="50" height="50" relative="1" as="geometry">
            <mxPoint x="292" y="370" as="sourcePoint" />
            <mxPoint x="440" y="380" as="targetPoint" />
          </mxGeometry>
        </mxCell>
        <mxCell id="9A-kqaF41Z_SbBzRxTRp-19" value="&lt;font size=&quot;1&quot; style=&quot;&quot;&gt;&lt;b style=&quot;font-size: 7px;&quot;&gt;drop_point_i1 ... drop_point_i(i-1)&lt;/b&gt;&lt;/font&gt;" style="text;html=1;align=center;verticalAlign=middle;resizable=0;points=[];autosize=1;strokeColor=none;fillColor=none;" vertex="1" parent="1">
          <mxGeometry x="165" y="310" width="130" height="30" as="geometry" />
        </mxCell>
        <mxCell id="9A-kqaF41Z_SbBzRxTRp-21" value="&lt;b style=&quot;forced-color-adjust: none; color: rgb(0, 0, 0); font-family: Helvetica; font-style: normal; font-variant-ligatures: normal; font-variant-caps: normal; letter-spacing: normal; orphans: 2; text-align: center; text-indent: 0px; text-transform: none; widows: 2; word-spacing: 0px; -webkit-text-stroke-width: 0px; white-space: nowrap; background-color: rgb(251, 251, 251); text-decoration-thickness: initial; text-decoration-style: initial; text-decoration-color: initial; font-size: 7px;&quot;&gt;drop_point_j1 ... drop_point_j(j-1)&lt;/b&gt;" style="text;whiteSpace=wrap;html=1;" vertex="1" parent="1">
          <mxGeometry x="480" y="340" width="140" height="40" as="geometry" />
        </mxCell>
        <mxCell id="9A-kqaF41Z_SbBzRxTRp-22" value="" style="endArrow=classic;html=1;rounded=0;entryX=0.375;entryY=-0.037;entryDx=0;entryDy=0;entryPerimeter=0;exitX=0.5;exitY=1;exitDx=0;exitDy=0;" edge="1" parent="1" source="9A-kqaF41Z_SbBzRxTRp-7" target="9A-kqaF41Z_SbBzRxTRp-2">
          <mxGeometry width="50" height="50" relative="1" as="geometry">
            <mxPoint x="351" y="458" as="sourcePoint" />
            <mxPoint x="237" y="412" as="targetPoint" />
          </mxGeometry>
        </mxCell>
        <mxCell id="9A-kqaF41Z_SbBzRxTRp-23" value="" style="endArrow=classic;html=1;rounded=0;entryX=0.747;entryY=-0.025;entryDx=0;entryDy=0;entryPerimeter=0;exitX=0.254;exitY=1.066;exitDx=0;exitDy=0;exitPerimeter=0;" edge="1" parent="1" source="9A-kqaF41Z_SbBzRxTRp-10" target="9A-kqaF41Z_SbBzRxTRp-2">
          <mxGeometry width="50" height="50" relative="1" as="geometry">
            <mxPoint x="361" y="468" as="sourcePoint" />
            <mxPoint x="247" y="422" as="targetPoint" />
          </mxGeometry>
        </mxCell>
        <mxCell id="9A-kqaF41Z_SbBzRxTRp-24" value="" style="endArrow=none;dashed=1;html=1;rounded=0;entryX=1;entryY=0.5;entryDx=0;entryDy=0;exitX=0.017;exitY=0.338;exitDx=0;exitDy=0;exitPerimeter=0;" edge="1" parent="1" source="9A-kqaF41Z_SbBzRxTRp-10" target="9A-kqaF41Z_SbBzRxTRp-7">
          <mxGeometry width="50" height="50" relative="1" as="geometry">
            <mxPoint x="390" y="450" as="sourcePoint" />
            <mxPoint x="440" y="400" as="targetPoint" />
          </mxGeometry>
        </mxCell>
        <mxCell id="9A-kqaF41Z_SbBzRxTRp-25" value="&lt;b style=&quot;forced-color-adjust: none; color: rgb(0, 0, 0); font-family: Helvetica; font-style: normal; font-variant-ligatures: normal; font-variant-caps: normal; letter-spacing: normal; orphans: 2; text-align: center; text-indent: 0px; text-transform: none; widows: 2; word-spacing: 0px; -webkit-text-stroke-width: 0px; white-space: nowrap; background-color: rgb(251, 251, 251); text-decoration-thickness: initial; text-decoration-style: initial; text-decoration-color: initial; font-size: 7px;&quot;&gt;drop_point_ii&lt;/b&gt;" style="text;whiteSpace=wrap;html=1;" vertex="1" parent="1">
          <mxGeometry x="320" y="320" width="60" height="20" as="geometry" />
        </mxCell>
        <mxCell id="9A-kqaF41Z_SbBzRxTRp-26" value="&lt;b style=&quot;forced-color-adjust: none; color: rgb(0, 0, 0); font-family: Helvetica; font-style: normal; font-variant-ligatures: normal; font-variant-caps: normal; letter-spacing: normal; orphans: 2; text-align: center; text-indent: 0px; text-transform: none; widows: 2; word-spacing: 0px; -webkit-text-stroke-width: 0px; white-space: nowrap; background-color: rgb(251, 251, 251); text-decoration-thickness: initial; text-decoration-style: initial; text-decoration-color: initial; font-size: 7px;&quot;&gt;drop_point_jj&lt;/b&gt;&lt;div&gt;&lt;b style=&quot;forced-color-adjust: none; color: rgb(0, 0, 0); font-family: Helvetica; font-style: normal; font-variant-ligatures: normal; font-variant-caps: normal; letter-spacing: normal; orphans: 2; text-align: center; text-indent: 0px; text-transform: none; widows: 2; word-spacing: 0px; -webkit-text-stroke-width: 0px; white-space: nowrap; background-color: rgb(251, 251, 251); text-decoration-thickness: initial; text-decoration-style: initial; text-decoration-color: initial; font-size: 7px;&quot;&gt;&lt;br&gt;&lt;/b&gt;&lt;/div&gt;" style="text;whiteSpace=wrap;html=1;" vertex="1" parent="1">
          <mxGeometry x="400" y="330" width="60" height="20" as="geometry" />
        </mxCell>
      </root>
    </mxGraphModel>
  </diagram>
</mxfile>
